# xmcd CD database file
#
# Track frame offsets:
#	150
#	16888
#	27864
#	38152
#	50220
#	64953
#	76238
#	90333
#	104642
#	113926
#	128929
#	140338
#
# Disc length: 2091 seconds
#
# Revision: 0
# Processed by: cddbd v1.5.2PL0 Copyright (c) Steve Scherf et al.
# Submitted via: CDex 1.51
#
DISCID=a008290c
DTITLE=Freddie Fender - Are you Ready For Freddy
DYEAR=1975
DGENRE=Country
TTITLE0=Secret Love
TTITLE1=Loving Cajun Style
TTITLE2=Take Your Time
TTITLE3=I can't Put My Arms Around A Memory
TTITLE4=Cielito Lindo Is My Lady
TTITLE5=Begging To You
TTITLE6=What'd I Say
TTITLE7=How Much Is That Doggie In The Window
TTITLE8=Teardrops In My Heart
TTITLE9=You Came In
TTITLE10=I'm Not Through Loving You Yet
TTITLE11=Goodbye Clothes
EXTD=YEAR: 1975
EXTT0=
EXTT1=
EXTT2=
EXTT3=
EXTT4=
EXTT5=
EXTT6=
EXTT7=
EXTT8=
EXTT9=
EXTT10=
EXTT11=
PLAYORDER=
